<svg xmlns="http://www.w3.org/2000/svg" viewBox="0 0 512 512" role="img" aria-label="Sunny Concepts monogram favicon">
  <rect width="512" height="512" fill="#000"/>
  <g fill="#fff">
    <path d="M254 112 325 153 150 255 150 169Z"/>
    <path d="M337 160 391 191 391 274 356 274 356 225 292 188Z"/>
    <path d="M258 185 326 225 326 310 255 352 208 325 279 283 279 244 151 318 151 286Z"/>
    <path d="M150 329 326 227 326 310 179 395 150 378Z"/>
    <path d="M151 382 208 415 254 388 326 430 254 472 151 413Z"/>
    <path d="M356 304 391 304 391 386 326 424 291 404 356 366Z"/>
  </g>
</svg>
